<svg xmlns="http://www.w3.org/2000/svg" viewBox="0 0 32 32" shape-rendering="crispEdges">
  <!-- Pixel art lemon -->
  <!-- Leaf -->
  <rect x="14" y="2" width="2" height="2" fill="#2d5a27"/>
  <rect x="16" y="2" width="2" height="2" fill="#3d7a37"/>
  <rect x="16" y="4" width="2" height="2" fill="#2d5a27"/>
  <rect x="18" y="4" width="2" height="2" fill="#3d7a37"/>
  <rect x="14" y="4" width="2" height="2" fill="#4a9a47"/>

  <!-- Stem -->
  <rect x="14" y="6" width="2" height="2" fill="#5d4e37"/>

  <!-- Lemon body - outer edge (darker yellow) -->
  <rect x="10" y="8" width="2" height="2" fill="#d4a017"/>
  <rect x="8" y="10" width="2" height="2" fill="#d4a017"/>
  <rect x="6" y="12" width="2" height="4" fill="#d4a017"/>
  <rect x="6" y="16" width="2" height="4" fill="#d4a017"/>
  <rect x="8" y="20" width="2" height="2" fill="#d4a017"/>
  <rect x="10" y="22" width="2" height="2" fill="#d4a017"/>
  <rect x="12" y="24" width="4" height="2" fill="#d4a017"/>
  <rect x="16" y="24" width="4" height="2" fill="#d4a017"/>
  <rect x="20" y="22" width="2" height="2" fill="#d4a017"/>
  <rect x="22" y="20" width="2" height="2" fill="#d4a017"/>
  <rect x="24" y="16" width="2" height="4" fill="#d4a017"/>
  <rect x="24" y="12" width="2" height="4" fill="#d4a017"/>
  <rect x="22" y="10" width="2" height="2" fill="#d4a017"/>
  <rect x="20" y="8" width="2" height="2" fill="#d4a017"/>
  <rect x="12" y="8" width="8" height="2" fill="#d4a017"/>

  <!-- Lemon body - main fill (bright yellow) -->
  <rect x="10" y="10" width="12" height="2" fill="#f7dc6f"/>
  <rect x="8" y="12" width="16" height="8" fill="#f7dc6f"/>
  <rect x="10" y="20" width="12" height="2" fill="#f7dc6f"/>
  <rect x="12" y="22" width="8" height="2" fill="#f7dc6f"/>

  <!-- Highlight (light yellow) -->
  <rect x="10" y="12" width="4" height="2" fill="#fef9e7"/>
  <rect x="8" y="14" width="4" height="2" fill="#fef9e7"/>
  <rect x="10" y="16" width="2" height="2" fill="#fef9e7"/>
</svg>
